<svg xmlns="http://www.w3.org/2000/svg" enable-background="new 0 0 1000 1000" viewBox="0 0 1000 1000" id="coloring-tool"><path fill="#3f3d44" d="M0 0h1000v1000H0z"></path><path fill="#ff8603" d="M642.549 3h150v358.188h-150z"></path><path fill="#ed5f18" d="M762.549 60.5V111c0 8.284-6.716 15-15 15-8.284 0-15-6.716-15-15V43c0-8.284-6.716-15-15-15-8.284 0-15 6.716-15 15v68c0 8.284-6.716 15-15 15-8.284 0-15-6.716-15-15V88c0-8.284-6.716-15-15-15-8.284 0-15 6.716-15 15v261.188h150V60.5c0-8.284-6.716-15-15-15-8.284 0-15 6.716-15 15z"></path><path fill="#ef2531" d="M762.549 72.5V123c0 8.284-6.716 15-15 15-8.284 0-15-6.716-15-15V55c0-8.284-6.716-15-15-15-8.284 0-15 6.716-15 15v68c0 8.284-6.716 15-15 15-8.284 0-15-6.716-15-15v-23c0-8.284-6.716-15-15-15-8.284 0-15 6.716-15 15v261.188h150V72.5c0-8.284-6.716-15-15-15-8.284 0-15 6.716-15 15z"></path><path fill="#cc253d" d="M762.549 168.333v71.055c0 8.284-6.716 15-15 15-8.284 0-15-6.716-15-15v-36.795c0-8.284-6.716-15-15-15-8.284 0-15 6.716-15 15v36.795c0 8.284-6.716 15-15 15-8.284 0-15-6.716-15-15v-50.5c0-8.284-6.716-15-15-15-8.284 0-15 6.716-15 15V352.85h150V168.333c0-8.284-6.716-15-15-15-8.284 0-15 6.716-15 15z"></path><path fill="none" stroke="#3f2522" stroke-linecap="round" stroke-linejoin="round" stroke-miterlimit="10" stroke-width="6" d="M762.549 72.5V123c0 8.284-6.716 15-15 15h0c-8.284 0-15-6.716-15-15V55c0-8.284-6.716-15-15-15h0c-8.284 0-15 6.716-15 15v68c0 8.284-6.716 15-15 15h0c-8.284 0-15-6.716-15-15v-23c0-8.284-6.716-15-15-15h0c-8.284 0-15 6.716-15 15v261.188h150V72.5c0-8.284-6.716-15-15-15h0c-8.284 0-15 6.716-15 15z"></path><path fill="#38beb3" d="M762.549 181.333v71.055c0 8.284-6.716 15-15 15-8.284 0-15-6.716-15-15v-36.795c0-8.284-6.716-15-15-15-8.284 0-15 6.716-15 15v36.795c0 8.284-6.716 15-15 15-8.284 0-15-6.716-15-15v-50.5c0-8.284-6.716-15-15-15-8.284 0-15 6.716-15 15V365.85h150V181.333c0-8.284-6.716-15-15-15-8.284 0-15 6.716-15 15z"></path><path fill="#026060" d="M642.5 325h150.049v36.188H642.5z" opacity=".14"></path><path fill="none" stroke="#3f2522" stroke-linecap="round" stroke-linejoin="round" stroke-miterlimit="10" stroke-width="6" d="M762.549 181.333v71.055c0 8.284-6.716 15-15 15h0c-8.284 0-15-6.716-15-15v-36.795c0-8.284-6.716-15-15-15h0c-8.284 0-15 6.716-15 15v36.795c0 8.284-6.716 15-15 15h0c-8.284 0-15-6.716-15-15v-50.5c0-8.284-6.716-15-15-15h0c-8.284 0-15 6.716-15 15V365.85h150V181.333c0-8.284-6.716-15-15-15h0c-8.284 0-15 6.716-15 15z"></path><path fill="none" stroke="#3f2522" stroke-linecap="round" stroke-linejoin="round" stroke-miterlimit="10" stroke-width="6" d="M642.549 3h150v358.188h-150z"></path><path fill="none" stroke="#3f2522" stroke-linecap="round" stroke-linejoin="round" stroke-miterlimit="10" stroke-width="8" d="M715.163 514.417v-21.689c0-14.509 11.762-26.271 26.271-26.271h77.387c14.509 0 26.271-11.762 26.271-26.271v-22.729c0-14.509-11.762-26.271-26.271-26.271h-23.729"></path><path fill="#f1e4e5" d="m564.431 382.141-28.162-51.059c-.918-1.665-3.311-1.665-4.229 0l-28.1 50.953v9.213h60.491v-9.107z"></path><path fill="#ddd4d5" d="M536.269 331.082c-.918-1.665-3.311-1.665-4.229 0l-3.15 5.711 26.207 47.515v6.94h9.333v-9.107l-28.161-51.059z"></path><path fill="none" stroke="#3f2522" stroke-linecap="round" stroke-linejoin="round" stroke-miterlimit="10" stroke-width="6" d="m564.431 382.141-28.162-51.059c-.918-1.665-3.311-1.665-4.229 0l-28.1 50.953v9.213h60.491v-9.107z"></path><path fill="none" stroke="#3f2522" stroke-linecap="round" stroke-linejoin="round" stroke-miterlimit="10" stroke-width="6" d="m545.001 346.915-8.733-15.833c-.918-1.665-3.311-1.665-4.229 0l-8.731 15.833h21.693z"></path><path fill="#3f2522" d="m545.001 346.915-8.733-15.833c-.918-1.665-3.311-1.665-4.229 0l-8.731 15.833h21.693z"></path><path fill="#6b352f" d="M292.323 642.163c-16.2 0-29.851-13.365-30.516-30.516l-5.484-141.484h72l-5.484 141.484c-.664 17.151-14.315 30.516-30.516 30.516z"></path><path fill="#a35d58" d="M262.53 617.333c7.824 0 14.073-6.518 13.743-14.335l-5.002-118.504c-.338-8.01-6.931-14.331-14.948-14.331l5.484 141.484c.076 1.95.327 3.848.723 5.686z" opacity=".48"></path><path fill="#602c29" d="M328.323 470.163c-9.005 0-16.402 7.115-16.751 16.114l-4.557 117.562c-.665 17.151-14.316 30.516-30.516 30.516-1.549 0-3.074-.124-4.567-.36 5.445 5.09 12.622 8.168 20.39 8.168 16.2 0 29.851-13.365 30.516-30.516l5.485-141.484z"></path><defs><filter id="a" width="137.352" height="225.973" x="228.5" y="447.059" filterUnits="userSpaceOnUse"><feColorMatrix values="1 0 0 0 0 0 1 0 0 0 0 0 1 0 0 0 0 0 1 0"></feColorMatrix></filter></defs><mask id="b" width="137.352" height="225.973" x="228.5" y="447.059" maskUnits="userSpaceOnUse"><g filter="url(#a)"><path fill="#9f4b22" d="M292.323 642.163c-16.2 0-29.851-13.365-30.516-30.516l-5.484-141.484h72l-5.484 141.484c-.664 17.151-14.315 30.516-30.516 30.516z"></path></g></mask><g mask="url(#b)" opacity=".56"><path fill="none" stroke="#dd795b" stroke-linecap="round" stroke-linejoin="round" stroke-miterlimit="10" stroke-width="6" d="M231.5 464.5c.112 11.617 47.112 8.345 54.75 29.5 7.56 20.939-33.176 38.844-46.25 92.5-6.323 25.95-3.666 50.14 2.25 52.337 7.539 2.799 12.867-36.581 38.25-40.087 15.637-2.16 28 9 43.25 28.25 23.11 29.171 24.805 43.816 30.75 43 7.711-1.058 17.726-61.92-9.5-82-16.134-11.899-35-3.5-45.333-16.333-9.801-12.172-2.137-29.854.234-35.83 1.555-3.918 12.326-23.337 29.432-36.17 5.931-4.45 10.128-3.912 13.667-8.667 5.505-7.398 6.811-20.291 0-29.5-9.239-12.492-28.923-11.58-37.5-4-8.535 7.543 6.069 15.311 0 18-10.617 4.704-20.613-28.227-41.75-25.25-15.149 2.133-32.318 7.198-32.25 14.25z"></path><path fill="none" stroke="#dd795b" stroke-linecap="round" stroke-linejoin="round" stroke-miterlimit="10" stroke-width="6" d="M239.25 495.75c10.205-8.057 21.243-10.705 27.75-6.417.793.522 4.431 3.067 5 7.167.728 5.242-4.023 9.698-8.5 14-5.231 5.027-12.781 12.434-22.5 22.5M276.5 462.5c6.5 6.5 15.25 24.103 29.5 24.103 13.75 0 16.123-26.428 22.323-24.103 2.198.824 7.618 5.441 7.927 7.833.661 5.121-3.896 9.597-8.444 13.167 0 0-13.616 10.177-28.101 26.302-6.515 7.253-17.955 24.198-19.889 40.014-1.132 9.256-1.158 21.82 4.684 30.684 9.732 14.767 36.647 18.62 66 8.5"></path><path fill="none" stroke="#dd795b" stroke-linecap="round" stroke-linejoin="round" stroke-miterlimit="10" stroke-width="6" d="M342.333 514c-8.973-3.571-27.112 13.169-29.667 31-.336 2.342-1.976 13.79 4.333 18.333 6.79 4.89 19.507-.582 26-8 11.512-13.149 8.19-37.809-.666-41.333zM253.333 586.333c-.379-1.335-5.203-19.042 3.877-28 1.167-1.151 7.193-6.468 10.79-.603 2.658 4.334 3.315 19.516-2.167 31.603-5.042 11.117-15.136 15.834-19.833 19M264.333 651c-3.397-13.181 1.463-28.329 11.333-34.25 5.884-3.53 12.347-3.311 12.347-3.311 7.017.256 11.881 3.998 14.487 6.061 0 0 14.824 11.735 14.228 35.82-.008.31-.02.638-.02.638a48.199 48.199 0 0 1-2.208 13.292"></path><path fill="none" stroke="#dd795b" stroke-linecap="round" stroke-linejoin="round" stroke-miterlimit="10" stroke-width="6" d="M286.75 648c-4.768-5.07-5.221-11.891-2.083-15.667 2.906-3.498 8.158-3.498 11.333-2.583 6.129 1.766 10.592 8.689 10.667 17.25"></path></g><path fill="#bdced9" d="M328.323 470.163h-72c.722-27.345 6.396-47.856 14.334-61.667h43.331c7.939 13.811 13.613 34.322 14.335 61.667z"></path><path fill="#fff" d="M270.658 408.497c-7.938 13.81-13.612 34.321-14.334 61.667 7.231 0 13.258-5.527 13.904-12.729 1.889-21.074 6.952-37.36 13.607-48.938h-13.177z" opacity=".26"></path><path fill="#acc1cc" d="M315.833 424.167h-30.917c-8.514 0-15.417-6.902-15.417-15.417v-.253h46.333v15.67z"></path><path fill="#acc1cc" d="M313.989 408.497h-17.073c7.939 13.81 13.612 34.321 14.334 61.667h17.073c-.722-27.346-6.396-47.857-14.334-61.667z"></path><path fill="none" stroke="#3f2522" stroke-linecap="round" stroke-linejoin="round" stroke-miterlimit="10" stroke-width="6" d="M328.323 470.163h-72c.722-27.345 6.396-47.856 14.334-61.667h43.331c7.939 13.811 13.613 34.322 14.335 61.667z"></path><path fill="#bdced9" d="M312.323 408.497h-40c-6.627 0-12-5.373-12-12s5.373-12 12-12h40c6.627 0 12 5.373 12 12s-5.372 12-12 12z"></path><ellipse cx="266.305" cy="396.497" fill="#fff" opacity=".26" rx="6.125" ry="7.969"></ellipse><path fill="#acc1cc" d="M312.323 384.497h-24.195c6.627 0 12 5.373 12 12s-5.373 12-12 12h24.195c6.627 0 12-5.373 12-12 0-6.628-5.372-12-12-12z"></path><path fill="none" stroke="#3f2522" stroke-linecap="round" stroke-linejoin="round" stroke-miterlimit="10" stroke-width="6" d="M312.323 408.497h-40c-6.627 0-12-5.373-12-12h0c0-6.627 5.373-12 12-12h40c6.627 0 12 5.373 12 12h0c0 6.627-5.372 12-12 12z"></path><path fill="#3f2522" d="M314.286 315.493c4.747 6.474 12.298 12.974 13.903 24.836.628 4.639.422 9.49-.75 14.364-3.669 15.263-21.033 31.459-41.432 29.477-20.868-2.027-37.68-22.444-34.997-45.836.674-6.749 3.471-25.781 18.729-42.913 9.347-10.495 19.806-16.275 27.323-19.415 3.098-1.294 6.528.913 6.624 4.269.507 17.653 5.634 28.444 10.6 35.218z"></path><path fill="none" stroke="#3f2522" stroke-linecap="round" stroke-linejoin="round" stroke-miterlimit="10" stroke-width="6" d="M314.286 315.493c4.747 6.474 12.298 12.974 13.903 24.836.628 4.639.422 9.49-.75 14.364-3.669 15.263-21.033 31.459-41.432 29.477-20.868-2.027-37.68-22.444-34.997-45.836.674-6.749 3.471-25.781 18.729-42.913 9.347-10.495 19.806-16.275 27.323-19.415 3.098-1.294 6.528.913 6.624 4.269.507 17.653 5.634 28.444 10.6 35.218z"></path><path fill="#301b19" d="M319.92 338.608c.006-.165.021-.328.021-.495.023-.248.07-.492.099-.738.061-.527.129-1.051.212-1.571.032-.189.066-.378.101-.567.479-2.732 1.247-10.87 2.285-13.363-1.766-.296-3.368 4.286-4.508 2.898-1.363-1.66-2.687-3.242-3.844-4.82-4.968-6.775-10.095-17.569-10.6-35.228-.096-3.351-3.521-5.555-6.615-4.263-7.517 3.139-17.981 8.919-27.332 19.419-7.664 8.605-16.489 12.535-19.011 24.369.447.13 9.056 7.335 9.056 12.773v15.129c0 6.848 5.357 12.722 12.203 12.847 6.975.128 12.67-5.488 12.67-12.434v-26.045c0-3.799 2.927-7.112 6.725-7.226a6.938 6.938 0 0 1 7.151 6.935v11.885c0 6.869 4.792 12.437 10.704 12.437 5.41 0 9.871-4.668 10.591-10.725.02-.408.058-.812.092-1.217z" opacity=".76"></path><path fill="none" stroke="#3f2522" stroke-linecap="round" stroke-linejoin="round" stroke-miterlimit="10" stroke-width="6" d="M292.323 642.163h0c-16.2 0-29.851-13.365-30.516-30.516l-5.484-141.484h72l-5.484 141.484c-.664 17.151-14.315 30.516-30.516 30.516z"></path><path fill="#38beb3" d="M420 635.105c-17.673 0-32-14.327-32-32v-156h64v156c0 17.673-14.327 32-32 32z"></path><path fill="#fff" d="M390 615.333V452.667c6.627 0 12 5.373 12 12v138.667c0 6.627-5.373 11.999-12 11.999z" opacity=".23"></path><path fill="#026060" d="M437 447.105V595.33c0 17.673-14.327 32-32 32-2.296 0-4.534-.247-6.693-.706 5.703 5.263 13.321 8.481 21.693 8.481 17.673 0 32-14.327 32-32v-156h-15z" opacity=".32"></path><path fill="none" stroke="#3f2522" stroke-linecap="round" stroke-linejoin="round" stroke-miterlimit="10" stroke-width="6" d="M420 635.105h0c-17.673 0-32-14.327-32-32v-156h64v156c0 17.673-14.327 32-32 32z"></path><path fill="#9bc7bc" d="M436 377.105v-29.583h-32v29.583c0 8.837-7.163 16-16 16v54h64v-54c-8.837 0-16-7.164-16-16z"></path><path fill="#fff" d="M391 443.667h-.667v-47.17c6.259 0 11.333 5.074 11.333 11.333V433c.001 5.891-4.775 10.667-10.666 10.667z" opacity=".26"></path><path fill="#72a596" d="M436 377.105v-29.583c-7.732 0-14 6.268-14 14v15.583c0 11.489 6.492 21.49 16 26.528v29.472c0 7.732 6.268 14 14 14v-54c-8.837 0-16-7.164-16-16z" opacity=".47"></path><path fill="none" stroke="#3f2522" stroke-linecap="round" stroke-linejoin="round" stroke-miterlimit="10" stroke-width="6" d="M436 377.105v-29.583h-32v30.281c0 8.451-6.851 15.302-15.302 15.302H388v54h64v-54h0c-8.837 0-16-7.164-16-16z"></path><path fill="#94af4a" d="M408 302.869v44.652h24v-33.582c-8.097-1.78-15.184-6.248-20.279-12.422-1.254-1.518-3.721-.617-3.721 1.352z"></path><path fill="none" stroke="#3f2522" stroke-linecap="round" stroke-linejoin="round" stroke-miterlimit="10" stroke-width="6" d="M408 303.672v43.849h24v-33.582c-7.826-1.721-14.709-5.952-19.762-11.808-1.464-1.698-4.238-.701-4.238 1.541z"></path><path fill="#ec2731" d="M552.154 636.206h-36c-6.627 0-12-5.373-12-12v-15.458h60v15.458c0 6.628-5.372 12-12 12z"></path><path fill="#d3112e" d="M554.988 618.756v4.688a5.306 5.306 0 0 1-5.306 5.306h-25.6a7.456 7.456 0 0 0-7.456 7.456h35.529c6.627 0 12-5.373 12-12V610h-.41a8.756 8.756 0 0 0-8.757 8.756z"></path><path fill="#ffa4ad" d="M511.063 630.75a3.937 3.937 0 0 1-3.937-3.938l.001-15.313h3.936a3.934 3.934 0 0 1 3.937 3.933v11.383a3.934 3.934 0 0 1-3.937 3.935z" opacity=".51"></path><path fill="none" stroke="#3f2522" stroke-linecap="round" stroke-linejoin="round" stroke-miterlimit="10" stroke-width="6" d="M552.154 636.206h-36c-6.627 0-12-5.373-12-12v-15.458h60v15.458c0 6.628-5.372 12-12 12z"></path><path fill="#48633b" d="M566.154 608.748h-20v-221c0-5.523 4.477-10 10-10s10 4.477 10 10v221z"></path><path fill="none" stroke="#3f2522" stroke-linecap="round" stroke-linejoin="round" stroke-miterlimit="10" stroke-width="6" d="M566.154 608.748h-20v-221c0-5.523 4.477-10 10-10h0c5.523 0 10 4.477 10 10v221z"></path><path fill="#94af4a" d="M522.154 608.748h-20v-221c0-5.523 4.477-10 10-10s10 4.477 10 10v221z"></path><path fill="#bfbc47" d="M506.884 604.218a4.179 4.179 0 0 1-4.179-4.179V386.456a4.179 4.179 0 1 1 8.358 0V600.04a4.179 4.179 0 0 1-4.179 4.178z"></path><path fill="none" stroke="#3f2522" stroke-linecap="round" stroke-linejoin="round" stroke-miterlimit="10" stroke-width="6" d="M522.154 608.748h-20v-221c0-5.523 4.477-10 10-10h0c5.523 0 10 4.477 10 10v221z"></path><path fill="#4d9358" d="M546.154 608.748h-24v-219c0-6.627 5.373-12 12-12s12 5.373 12 12v219z"></path><path fill="none" stroke="#3f2522" stroke-linecap="round" stroke-linejoin="round" stroke-miterlimit="10" stroke-width="6" d="M546.154 608.748h-24v-219c0-6.627 5.373-12 12-12h0c6.627 0 12 5.373 12 12v219z"></path><path fill="#38beb3" d="M788.265 431.188H645.918c-10.674 0-19.326-8.653-19.326-19.326v-41.347c0-10.674 8.653-19.326 19.326-19.326h142.347c10.674 0 19.326 8.653 19.326 19.326v41.347c0 10.673-8.652 19.326-19.326 19.326z"></path><path fill="#fff" d="M634.835 416.012a5.832 5.832 0 0 1-5.832-5.832v-37.985a5.832 5.832 0 1 1 11.664 0v37.985a5.832 5.832 0 0 1-5.832 5.832z" opacity=".23"></path><path fill="#026060" d="M780.833 412.355H653.349a6.167 6.167 0 1 1 0-12.334h127.484a6.167 6.167 0 1 1 0 12.334zM783.917 394.331H650.266a3.083 3.083 0 1 1 0-6.166h133.651a3.083 3.083 0 1 1 0 6.166z" opacity=".05"></path><path fill="#026060" d="M788.265 351.188h-1.054a19.214 19.214 0 0 1 2.063 8.653v46.113c0 8.042-6.519 14.561-14.561 14.561H651.34c-5.895 0-10.673 4.779-10.673 10.674h147.598c10.674 0 19.326-8.653 19.326-19.326v-41.347c0-10.675-8.652-19.328-19.326-19.328z" opacity=".14"></path><path fill="#92d3d1" d="M795.606 364.024h-157.03a5.194 5.194 0 0 1 0-10.388h157.03a5.194 5.194 0 0 1 0 10.388z" opacity=".15"></path><path fill="none" stroke="#3f2522" stroke-linecap="round" stroke-linejoin="round" stroke-miterlimit="10" stroke-width="6" d="M788.265 431.188H645.918c-10.674 0-19.326-8.653-19.326-19.326v-41.347c0-10.674 8.653-19.326 19.326-19.326h142.347c10.674 0 19.326 8.653 19.326 19.326v41.347c0 10.673-8.652 19.326-19.326 19.326z"></path><path fill="#ab5647" d="M715.163 630.308c-11.745 0-21.265-9.521-21.265-21.265v-68.4c0-11.745 9.521-21.265 21.265-21.265 11.745 0 21.265 9.521 21.265 21.265v68.4c0 11.744-9.521 21.265-21.265 21.265z"></path><path fill="#ffbba6" d="M700.843 617.5a5.392 5.392 0 0 1-5.392-5.392v-76.715a5.392 5.392 0 1 1 10.784 0v76.715a5.39 5.39 0 0 1-5.392 5.392z" opacity=".21"></path><path fill="#9b4f45" d="M720.551 520.093a21.173 21.173 0 0 1 4.877 13.55v68.4c0 11.745-9.521 21.265-21.265 21.265-1.865 0-3.665-.265-5.388-.716 3.901 4.712 9.793 7.716 16.388 7.716 11.745 0 21.265-9.521 21.265-21.265v-68.4c0-9.88-6.747-18.161-15.877-20.55z"></path><path fill="none" stroke="#3f2522" stroke-linecap="round" stroke-linejoin="round" stroke-miterlimit="10" stroke-width="6" d="M715.163 630.308h0c-11.745 0-21.265-9.521-21.265-21.265v-68.4c0-11.745 9.521-21.265 21.265-21.265h0c11.745 0 21.265 9.521 21.265 21.265v68.4c0 11.744-9.521 21.265-21.265 21.265z"></path><path fill="#9b4f45" d="M727.314 524.377h-24.303a9.114 9.114 0 0 1 0-18.228h24.303a9.114 9.114 0 0 1 9.114 9.114 9.113 9.113 0 0 1-9.114 9.114z"></path><ellipse cx="700.067" cy="515.25" fill="#ffbba6" opacity=".21" rx="6.169" ry="6.25"></ellipse><path fill="#8c443e" d="M727.314 506.15h-14.319a9.114 9.114 0 0 1 0 18.228h14.319a9.114 9.114 0 0 0 9.114-9.114 9.113 9.113 0 0 0-9.114-9.114z"></path><path fill="none" stroke="#3f2522" stroke-linecap="round" stroke-linejoin="round" stroke-miterlimit="10" stroke-width="6" d="M727.314 524.377h-24.303a9.114 9.114 0 0 1-9.114-9.114h0a9.114 9.114 0 0 1 9.114-9.114h24.303a9.114 9.114 0 0 1 9.114 9.114h0a9.113 9.113 0 0 1-9.114 9.114zM626.591 406.188h-1.186a6.814 6.814 0 0 1-6.814-6.814v-16.372a6.814 6.814 0 0 1 6.814-6.814h1.186v30z"></path><path fill="#3f2522" d="M626.591 406.188h-1.186a6.814 6.814 0 0 1-6.814-6.814v-16.372a6.814 6.814 0 0 1 6.814-6.814h1.186v30z"></path><path fill="none" stroke="#3f2522" stroke-linecap="round" stroke-linejoin="round" stroke-miterlimit="10" stroke-width="6" d="M807.591 406.188h1.186a6.814 6.814 0 0 0 6.814-6.814v-16.372a6.814 6.814 0 0 0-6.814-6.814h-1.186v30z"></path><path fill="#3f2522" d="M807.591 406.188h1.186a6.814 6.814 0 0 0 6.814-6.814v-16.372a6.814 6.814 0 0 0-6.814-6.814h-1.186v30z"></path><path fill="none" stroke="#ec2731" stroke-linecap="round" stroke-linejoin="round" stroke-miterlimit="10" stroke-width="6" d="M319.934 322.544c-1.976-2.505-3.984-4.782-5.647-7.052-4.963-6.768-10.085-17.547-10.599-35.176-.099-3.376-3.548-5.599-6.664-4.295-7.514 3.144-17.953 8.922-27.284 19.399-7.655 8.596-12.172 17.669-14.86 25.43a.03.03 0 0 0 .016.038"></path><path fill="#ec2731" d="M319.92 334.148c.006-.165.021-.328.021-.495.023-.248.07-.492.099-.738.061-.527.129-1.051.212-1.571.032-.189.066-.378.101-.567a37.083 37.083 0 0 1 2.285-7.856 7.42 7.42 0 0 1-4.508-2.609c-1.363-1.66-2.687-3.242-3.844-4.82-4.968-6.775-10.095-17.569-10.6-35.228-.096-3.351-3.521-5.555-6.615-4.263-7.517 3.139-17.981 8.919-27.332 19.419-7.664 8.605-13.218 20.495-15.904 28.261.447.13 5.949 3.443 5.949 8.88v15.129c0 6.848 5.357 12.722 12.203 12.847 6.975.128 12.67-5.488 12.67-12.434v-26.045c0-3.799 2.927-7.112 6.725-7.226a6.938 6.938 0 0 1 7.151 6.935v11.885c0 6.869 4.792 12.437 10.704 12.437 5.41 0 9.871-4.668 10.591-10.725.02-.407.058-.811.092-1.216z"></path><path fill="none" stroke="#fff" stroke-linecap="round" stroke-linejoin="round" stroke-miterlimit="10" stroke-width="6" d="M408 578.75v15.902M408 462.355v102.839" opacity=".4"></path><path fill="#cc253d" d="m717.695 177.758-10.78-15.962c-5.677-8.407-.358-20.17 9.763-20.854a15.56 15.56 0 0 1 2.034 0c10.121.684 15.44 12.447 9.763 20.854l-10.78 15.962z"></path><path fill="#38beb3" d="m717.695 184.758-10.78-15.962c-5.677-8.407-.358-20.17 9.763-20.854a15.56 15.56 0 0 1 2.034 0c10.121.684 15.44 12.447 9.763 20.854l-10.78 15.962z"></path><path fill="none" stroke="#3f2522" stroke-linecap="round" stroke-linejoin="round" stroke-miterlimit="10" stroke-width="6" d="M717.695 184.758h0l-10.78-15.962c-5.677-8.407-.358-20.17 9.763-20.854a14.89 14.89 0 0 1 1.017-.034h0c.342 0 .681.012 1.017.034 10.121.684 15.44 12.447 9.763 20.854l-10.78 15.962z"></path><path fill="none" stroke="#fff" stroke-linecap="round" stroke-linejoin="round" stroke-miterlimit="10" stroke-width="6" d="M652.667 371h83.761M753.5 371h12" opacity=".4"></path><circle cx="715.189" cy="606.437" r="6.689" fill="#3e454f"></circle><circle cx="715.189" cy="606.437" r="6.689" fill="none" stroke="#3f2522" stroke-linecap="round" stroke-linejoin="round" stroke-miterlimit="10" stroke-width="6"></circle></svg>