<svg xmlns="http://www.w3.org/2000/svg" enable-background="new 0 0 1000 1000" viewBox="0 0 1000 1000" id="canvas-stand"><path fill="#684463" d="M0 0h1000v1000H0z"></path><path fill="#825d7e" d="M774.455 271.129H591.586v-52h60.048c14.359 0 26-11.641 26-26s-11.641-26-26-26H348.366c-14.359 0-26 11.641-26 26s11.641 26 26 26h60.048v52H225.545c-14.359 0-26 11.641-26 26s11.641 26 26 26h68.571v52h3.651c-14.359 0-26 11.641-26 26s11.641 26 26 26h98.647v52h-76.022c-14.359 0-26 11.641-26 26s11.641 26 26 26h76.022v52H289.667c-14.359 0-26 11.641-26 26s11.641 26 26 26h388.467c14.359 0 26-11.641 26-26s-11.641-26-26-26h-74.548v-52h23.648c14.359 0 26-11.641 26-26s-11.641-26-26-26h-23.648v-52h98.647c14.359 0 26-11.641 26-26s-11.641-26-26-26h3.651v-52h68.571c14.359 0 26-11.641 26-26 0-14.36-11.641-26-26-26z" opacity=".5"></path><path fill="#3d233c" d="M846.333 713.5H153.667c-6.627 0-12-5.373-12-12s5.373-12 12-12h692.667c6.627 0 12 5.373 12 12-.001 6.627-5.373 12-12.001 12z" opacity=".69"></path><path fill="#825d7e" d="M231.832 429.683h-27.164c-14.359 0-26-11.641-26-26s11.641-26 26-26h27.164c14.359 0 26 11.641 26 26s-11.641 26-26 26z" opacity=".5"></path><path fill="#684463" d="M555.864 375.129H444.136c-14.359 0-26-11.641-26-26s11.641-26 26-26h111.728c14.359 0 26 11.641 26 26s-11.641 26-26 26zM795.992 375.129H684.263c-14.359 0-26-11.641-26-26s11.641-26 26-26h111.728c14.359 0 26 11.641 26 26 .001 14.359-11.64 26-25.999 26zM694.248 479.129H582.52c-14.359 0-26-11.641-26-26s11.641-26 26-26h111.728c14.359 0 26 11.641 26 26s-11.641 26-26 26zM350.257 375.129H238.529c-14.359 0-26-11.641-26-26s11.641-26 26-26h111.728c14.359 0 26 11.641 26 26s-11.641 26-26 26zM422.322 271.129H310.594c-14.359 0-26-11.641-26-26s11.641-26 26-26h111.728c14.359 0 26 11.641 26 26s-11.641 26-26 26zM667.748 271.129H556.02c-14.359 0-26-11.641-26-26s11.641-26 26-26h111.728c14.359 0 26 11.641 26 26s-11.641 26-26 26zM694.248 583.129H582.52c-14.359 0-26-11.641-26-26s11.641-26 26-26h111.728c14.359 0 26 11.641 26 26s-11.641 26-26 26zM410.475 583.129H298.746c-14.359 0-26-11.641-26-26s11.641-26 26-26h111.728c14.359 0 26 11.641 26 26 .001 14.359-11.64 26-25.999 26z"></path><path fill="#96628a" d="M780.005 492.069h-28.104v-4.22a4.53 4.53 0 0 1 4.531-4.531h19.041a4.53 4.53 0 0 1 4.531 4.531v4.22z"></path><path fill="#84517a" d="M777.073 483.318H774c1.619 0 2.932 1.12 2.932 2.502v6.249h3.073v-6.249c0-1.382-1.313-2.502-2.932-2.502z"></path><path fill="#cc83b4" d="M779.641 535.5h-27.377a6.25 6.25 0 0 1-6.25-6.25v-30.931a6.25 6.25 0 0 1 6.25-6.25h27.377a6.25 6.25 0 0 1 6.25 6.25v30.931a6.25 6.25 0 0 1-6.25 6.25z"></path><path fill="#bc71a7" d="M779.641 492.069h-4.583a6.25 6.25 0 0 1 6.25 6.25v30.931a6.25 6.25 0 0 1-6.25 6.25h4.583a6.25 6.25 0 0 0 6.25-6.25v-30.931a6.25 6.25 0 0 0-6.25-6.25z"></path><path fill="#684463" d="M271.768 635.129h456.465v52H271.768z"></path><path fill="#ab8fb8" d="M424.863 226.5H463V291h-38.137z"></path><path fill="#dfcce2" d="M418.559 226.5h38.137V291h-38.137z"></path><path fill="#a380af" d="M418.559 283.5h38.137v6.5h-38.137zM456.696 283.5H463v6.5h-6.304z" opacity=".82"></path><path fill="#ab8fb8" d="M404.745 290h86.34v40.82h-86.34z"></path><path fill="#ac91ba" d="m372.262 676.447 60.736-166.87-36.144-13.155-65.524 180.025z"></path><path fill="#dfcce2" d="m356.556 676.447 60.736-166.87-36.144-13.155-65.524 180.025z"></path><path fill="#a380af" d="m395.017 501.47-13.869-5.048-26.537 72.911h56.637l21.75-59.756-36.144-13.155z" opacity=".82"></path><path fill="#dfcce2" d="M285.08 676.447h56.274v25.983H285.08z"></path><path fill="#b39fc1" d="M334.321 676.447h56.274v25.983h-56.274z"></path><path fill="#f7cd84" d="m682.62 414.246-7.423 1.962c-.857.226-1.464 1.102-1.536 2.248-.363 5.74.027 12.648 1.416 20.674 3.327 19.223 11.833 42.216 24.345 62.926 1.55 2.565 4.476 1.792 4.556-1.204.645-24.188-3.321-48.38-9.927-66.737-2.758-7.664-5.833-13.862-8.985-18.673-.629-.961-1.59-1.422-2.446-1.196z"></path><path fill="#f8b461" d="M694.05 434.114c-2.758-7.664-5.833-13.862-8.985-18.673-.629-.961-1.59-1.421-2.446-1.195l-3.355.887a54.665 54.665 0 0 1 2.701 3.739s1.392 2.202 2.761 4.644c7.81 13.934 10.82 26.681 13.323 37.621 1.786 7.808 2.456 13.305 3.794 24.297.465 3.821 1.666 14.206.417 18.101.931-.251 1.677-1.191 1.717-2.684.645-24.187-3.32-48.38-9.927-66.737z"></path><path fill="#6f5a66" d="M670.278 385.935c.029-.36-.424-.541-.652-.261-2.31 2.839-7.771 10.697-6.068 20.363.185 1.051 2.13 11.274 9.819 14.784 2.475 1.13 4.353 1.02 4.754.99 4.616-.344 8.794-4.558 9.776-9.086 1.268-5.848-2.834-12.031-7.154-14.542-2.226-1.294-4.176-1.419-6.817-3.873-2.62-2.435-3.253-4.684-3.397-5.25a9.534 9.534 0 0 1-.261-3.125z"></path><path fill="#6b4c5f" d="M680.753 398.183c-2.226-1.294-4.176-1.419-6.817-3.873-2.62-2.435-3.253-4.684-3.397-5.25a9.529 9.529 0 0 1-.267-3.034.389.389 0 0 0-.307-.412 10.263 10.263 0 0 0-.147 4.013c.1.603.553 3.005 3.019 5.79 2.485 2.807 4.464 3.122 6.624 4.68 4.193 3.025 7.852 9.855 6.062 15.825a11.922 11.922 0 0 1-1.648 3.364c1.998-1.707 3.495-4.085 4.032-6.562 1.268-5.847-2.835-12.031-7.154-14.541z"></path><path fill="#ed4a5e" d="M673.936 394.31c-2.62-2.435-3.253-4.684-3.397-5.25a9.528 9.528 0 0 1-.26-3.133c.029-.358-.424-.533-.651-.255-2.125 2.612-6.912 9.486-6.331 18.105 0 0 .063.747.081.908v16.467a1.883 1.883 0 0 0 3.764 0v-15.609a1.342 1.342 0 0 1 2.684 0v2.916c0 .784.536 1.511 1.31 1.637a1.576 1.576 0 0 0 1.839-1.553v-1.051c0-1.19-.059-4.159 2.049-4.684 4.556-1.134 4.747-1.874 5.728-4.626-2.225-1.293-4.175-1.418-6.816-3.872z"></path><path fill="#de6173" d="M781.884 551.5h10v150h-10z" transform="rotate(-180 786.884 626.5)"></path><path fill="#f37f82" d="M769.884 551.5h12v150h-12z" transform="rotate(-180 775.884 626.5)"></path><path fill="#dd6b80" d="M717.884 667.333h58v13h-58zM717.884 551.5h58v40h-58z"></path><path fill="#f37f82" d="M764.304 569.854h-4.767a3 3 0 1 1 0-6h4.767a3 3 0 1 1 0 6zM768.313 579.146h-23.178a3 3 0 1 1 0-6h23.178a3 3 0 0 1 0 6zM751.134 569.854h-13.679a3 3 0 1 1 0-6h13.679a3 3 0 1 1 0 6z" opacity=".34"></path><path fill="#d1b9d6" d="m397.473 583.261-12.444 34.189H490.58v-34.189z"></path><path fill="#a380af" d="m397.473 583.261-12.444 34.189h6.819l12.444-34.189z" opacity=".87"></path><path fill="#c5e1df" d="m723.134 391.086-4.861-.718-6.025 10.82 13.529 1.996z"></path><path fill="#f7cd84" d="m706.668 491.574-1.657-.245a6 6 0 0 1-5.06-6.812l12.297-83.33 13.528 1.996-12.297 83.33a5.998 5.998 0 0 1-6.811 5.061z"></path><path fill="#f8b461" d="M702.583 490.971a3.546 3.546 0 0 1-2.99-4.025l12.655-85.758 3.507.518-13.172 89.265zM709.097 491.933l13.173-89.266 3.507.518-12.655 85.758a3.546 3.546 0 0 1-4.025 2.99z"></path><path fill="#6f5a66" d="m723.134 391.086-1.083-4.96c-.162-.743-.939-.857-1.309-.193l-2.47 4.435 4.862.718z"></path><path fill="#a5ceca" d="m723.134 391.086-2.305-.341 1.44 11.922 3.508.517z"></path><path fill="#de6173" d="M633.884 551.5h10v150h-10z" transform="rotate(-180 638.884 626.5)"></path><path fill="#f37f82" d="M621.884 551.5h12v150h-12z" transform="rotate(-180 627.884 626.5)"></path><path fill="#de6173" d="M717.884 551.5h10v150h-10z" transform="rotate(-180 722.884 626.5)"></path><path fill="#f37f82" d="M705.884 551.5h12v150h-12z" transform="rotate(-180 711.884 626.5)"></path><path fill="#f37f82" d="M638.384 551.5h67.5v40h-67.5zM638.384 667.333h67.5v13h-67.5z"></path><path fill="#ac91ba" d="m553.47 676.447-65.523-180.025-36.144 13.155 60.736 166.87z"></path><path fill="#dfcce2" d="m541.919 676.447-65.524-180.025-36.144 13.155 60.736 166.87z"></path><path fill="#a380af" d="m487.947 496.422-10.201 3.713-1.351-3.713-36.144 13.155 21.75 59.756h52.483z" opacity=".82"></path><path fill="#ab8fb8" d="M304.009 557.045h-19.232V540.41c0-6.005 4.868-10.874 10.874-10.874h8.358v27.509z"></path><path fill="#dfcce2" d="M582.51 557.045H284.777V540.41c0-6.005 4.868-10.874 10.874-10.874H582.51v27.509z"></path><path fill="#ab8fb8" d="M582.51 557.045h-19.232V540.41c0-6.005 4.868-10.874 10.874-10.874h8.358v27.509zM324.527 330.82h240.382v198.716H324.527z"></path><path fill="#fffdff" d="M309.281 330.82h240.382v198.716H309.281z"></path><path fill="#ea3268" d="M452.793 416.306c-2.603-4.46-6.134-7.991-10.594-10.594-4.461-2.603-9.33-3.904-14.612-3.904-5.281 0-10.152 1.301-14.612 3.904-4.46 2.603-7.991 6.134-10.594 10.594-2.603 4.46-3.904 9.331-3.904 14.612 0 5.281 1.302 10.151 3.904 14.612 2.603 4.46 6.134 7.991 10.594 10.594 4.46 2.603 9.331 3.904 14.612 3.904 5.281 0 10.152-1.301 14.612-3.904 4.46-2.602 7.991-6.134 10.593-10.594 2.603-4.46 3.904-9.331 3.904-14.612 0-5.282-1.301-10.153-3.903-14.612zm-25.206-10.253c6.266 0 11.737 2.072 16.412 6.216l-.474.663c-.19.266-.663.777-1.421 1.535a24.552 24.552 0 0 1-2.482 2.161c-.898.682-2.116 1.459-3.658 2.331a35.202 35.202 0 0 1-4.928 2.294c-2.906-5.358-6.014-10.184-9.324-14.479a25.032 25.032 0 0 1 5.875-.721zm-19.482 9.437c2.426-3.057 5.382-5.407 8.869-7.05 3.133 4.169 6.216 8.945 9.248 14.327-7.682 2.022-15.338 3.032-22.969 3.032a24.59 24.59 0 0 1 4.852-10.309zm-3.715 24.393c-1.112-2.843-1.668-5.831-1.668-8.965 0-.354.013-.619.038-.796 9.148 0 17.651-1.175 25.51-3.525a66.135 66.135 0 0 1 2.009 4.207c-.102.05-.265.107-.493.17-.228.063-.392.107-.494.133l-1.402.493c-.961.354-2.218.961-3.772 1.819a63.049 63.049 0 0 0-4.946 3.071c-1.744 1.188-3.544 2.761-5.401 4.72a31.752 31.752 0 0 0-4.681 6.31 24.902 24.902 0 0 1-4.7-7.637zm23.197 15.9c-5.913 0-11.194-1.895-15.844-5.685l.569.417c.884-1.946 2.185-3.816 3.904-5.61 1.718-1.794 3.373-3.241 4.965-4.341a49.023 49.023 0 0 1 5.193-3.108c1.87-.972 3.145-1.592 3.828-1.857.683-.265 1.226-.474 1.63-.626l.076-.038h.076c2.475 6.494 4.245 12.786 5.306 18.876-3.133 1.315-6.367 1.971-9.703 1.972zm20.924-11.429c-1.87 2.894-4.208 5.289-7.012 7.183-1.037-5.812-2.653-11.738-4.852-17.777 5.029-.784 10.196-.417 15.503 1.099a24.535 24.535 0 0 1-3.639 9.495zm3.561-13.777c-.253-.05-.569-.108-.948-.17-.379-.063-.84-.139-1.384-.227-.543-.088-1.15-.17-1.819-.246a71.93 71.93 0 0 0-2.142-.208 62.881 62.881 0 0 0-5.041-.209c-.884 0-1.813.026-2.785.076-.973.05-1.913.139-2.823.265a4.522 4.522 0 0 1-.285-.626 12.68 12.68 0 0 1-.245-.663 260.338 260.338 0 0 0-1.669-3.601 38.933 38.933 0 0 0 4.986-2.445c1.579-.923 2.841-1.743 3.789-2.463a31.33 31.33 0 0 0 2.691-2.294c.847-.809 1.396-1.37 1.649-1.686.253-.316.493-.626.72-.929l.038-.038c3.689 4.498 5.573 9.678 5.647 15.541l-.379-.077z"></path><path fill="#dfcce2" d="M476.35 676.447h56.274v25.983H476.35z"></path><path fill="#b39fc1" d="M525.59 676.447h56.274v25.983H525.59z"></path><path fill="#f37f82" d="M611.884 535.5h106v16h-106z"></path><path fill="#de6173" d="M717.884 535.5h80v16h-80z"></path><path fill="#e26971" d="M638.384 551.5h67.5v5.545h-67.5z"></path><path fill="#ce5f78" d="M709.884 569.5h40v4h-40z" transform="rotate(-90 729.884 571.5)"></path><path fill="#ce5f78" d="M723.384 671.833h13v4h-13z" transform="rotate(-90 729.884 673.833)"></path><path fill="#ce5f78" d="M729.884 551.5h46v5.545h-46z" transform="rotate(-180 752.884 554.273)"></path><path fill="#e26971" d="M705.884 551.5h12v.563h-12zM621.884 551.5h12v.563h-12z"></path><circle cx="674.896" cy="572.516" r="5.5" fill="#e26971"></circle><circle cx="672.134" cy="572" r="5.5" fill="#633047"></circle><ellipse cx="670.509" cy="569.75" fill="#f4cee1" rx="2.115" ry="1.731" transform="rotate(-5.095 670.546 569.78)"></ellipse><path fill="#e26971" d="M701.134 565.708h-10.967a3 3 0 1 1 0-6h10.967a3 3 0 1 1 0 6zM695.167 575H687.8a3 3 0 1 1 0-6h7.366a3 3 0 0 1 3 3 2.998 2.998 0 0 1-2.999 3z" opacity=".4"></path><path fill="#e26971" d="M681.8 586.083h-36.046a3 3 0 1 1 0-6H681.8a3 3 0 1 1 0 6z" opacity=".2"></path><path fill="#e26971" d="M662.809 586.083h-5.25a3 3 0 1 1 0-6h5.25a3 3 0 1 1 0 6z" opacity=".39"></path><path fill="#e26971" d="M671.896 565.708h-25.013a3 3 0 1 1 0-6h25.013a3 3 0 1 1 0 6z" opacity=".4"></path><path fill="#ea3268" d="M732.127 535.5H676.14a8 8 0 0 1-8-8v-68.167a3 3 0 0 1 3-3h65.987a3 3 0 0 1 3 3V527.5a8 8 0 0 1-8 8z"></path><path fill="#aa235b" d="M723.16 456.333V527.5a8 8 0 0 1-8 8h16.967a8 8 0 0 0 8-8v-68.167a3 3 0 0 0-3-3H723.16z" opacity=".69"></path><path fill="#f8b461" d="M248.845 623.63H205.41v-11.317a4.53 4.53 0 0 1 4.531-4.531h34.372a4.53 4.53 0 0 1 4.531 4.531v11.317z"></path><path fill="#e29c50" d="M244.314 607.783h-4.75a4.53 4.53 0 0 1 4.531 4.531v11.317h4.75v-11.317a4.53 4.53 0 0 0-4.531-4.531z"></path><path fill="#f7cd84" d="M251.693 702.283h-49.13a6.25 6.25 0 0 1-6.25-6.25V629.88a6.25 6.25 0 0 1 6.25-6.25h49.13a6.25 6.25 0 0 1 6.25 6.25v66.152a6.25 6.25 0 0 1-6.25 6.251z"></path><path fill="#f8b461" d="M250.606 623.63h-8.217a7.337 7.337 0 0 1 7.337 7.337v63.978a7.337 7.337 0 0 1-7.337 7.337h8.217a7.337 7.337 0 0 0 7.337-7.337v-63.978a7.337 7.337 0 0 0-7.337-7.337z"></path><path fill="#ed4a5e" d="M208.359 645.152h-.761a2.188 2.188 0 0 1-2.188-2.188V623.63h5.136v19.334a2.187 2.187 0 0 1-2.187 2.188z"></path><path fill="#ed4a5e" d="M210.546 623.63h5.136v7.043h-5.136z"></path><path fill="#f7cd84" d="M213.495 633.315h-.761a2.188 2.188 0 0 1-2.188-2.188v-1.69c0-1.208.979-2.188 2.188-2.188h.761c1.208 0 2.188.979 2.188 2.188v1.69a2.189 2.189 0 0 1-2.188 2.188z"></path><path fill="#ed4a5e" d="M218.63 633.707h-.761a2.188 2.188 0 0 1-2.188-2.188v-7.889h5.136v7.889a2.186 2.186 0 0 1-2.187 2.188z"></path><path fill="#dfcce2" d="M390.474 290h86.34v40.82h-86.34z"></path><circle cx="439.762" cy="310.41" r="10.289" fill="#a380af" opacity=".82"></circle><circle cx="437.095" cy="310.41" r="10.289" fill="#736177"></circle><path fill="#ea3268" d="M196.313 648.87h61.63v26.217h-61.63z"></path><path fill="#d33167" d="M250.166 648.87h7.777v26.217h-7.777z"></path><path fill="#ed4a5e" d="M659.194 664.856a3.488 3.488 0 0 1-3.485-3.484 3.49 3.49 0 0 1 3.485-3.485h42.056v-2.477h-42.056a5.961 5.961 0 0 0 0 11.923h42.056v-2.477h-42.056z"></path><path fill="#f4e1e4" d="M659.194 664.856a3.488 3.488 0 0 1-3.485-3.484 3.49 3.49 0 0 1 3.485-3.485h40.187v6.969h-40.187z"></path><path fill="#442228" d="M682.354 657.887h17.027v6.969h-17.027zM682.354 655.41h18.896v2.429h-18.896zM682.354 664.856h18.896v2.429h-18.896z" opacity=".2"></path><path fill="#ed4a5e" d="M171.483 702.283a6.569 6.569 0 1 1 13.138 0h-13.138z"></path><path fill="#e0445e" d="M181.336 702.283a3.284 3.284 0 1 1 6.568 0h-6.568z"></path></svg>